<mxfile host="Electron" agent="Mozilla/5.0 (Macintosh; Intel Mac OS X 10_15_7) AppleWebKit/537.36 (KHTML, like Gecko) draw.io/24.7.17 Chrome/128.0.6613.36 Electron/32.0.1 Safari/537.36" version="24.7.17" pages="2">
  <diagram name="Page-1" id="Q7cHINRdPtaIEgJOBZ-U">
    <mxGraphModel dx="1021" dy="854" grid="1" gridSize="10" guides="1" tooltips="1" connect="1" arrows="1" fold="1" page="1" pageScale="1" pageWidth="827" pageHeight="1169" math="0" shadow="0">
      <root>
        <mxCell id="0" />
        <mxCell id="1" parent="0" />
        <mxCell id="SeWUwIzPq12EOQfwaxu5-1" value="UAT&lt;br&gt;&lt;br&gt;AD (2012)" style="whiteSpace=wrap;html=1;" vertex="1" parent="1">
          <mxGeometry x="190" y="190" width="120" height="60" as="geometry" />
        </mxCell>
        <mxCell id="SeWUwIzPq12EOQfwaxu5-2" value="UAT&lt;br&gt;&lt;br&gt;&lt;font color=&quot;#cc0000&quot;&gt;AD RMS&lt;/font&gt; (2012)" style="whiteSpace=wrap;html=1;" vertex="1" parent="1">
          <mxGeometry x="190" y="280" width="120" height="60" as="geometry" />
        </mxCell>
        <mxCell id="SeWUwIzPq12EOQfwaxu5-3" value="UAT &lt;br&gt;AD" style="shape=hexagon;perimeter=hexagonPerimeter2;whiteSpace=wrap;html=1;fixedSize=1;" vertex="1" parent="1">
          <mxGeometry x="370" y="90" width="120" height="80" as="geometry" />
        </mxCell>
        <mxCell id="SeWUwIzPq12EOQfwaxu5-4" style="edgeStyle=orthogonalEdgeStyle;rounded=0;orthogonalLoop=1;jettySize=auto;html=1;entryX=0.575;entryY=1.038;entryDx=0;entryDy=0;entryPerimeter=0;" edge="1" parent="1" source="SeWUwIzPq12EOQfwaxu5-1" target="SeWUwIzPq12EOQfwaxu5-3">
          <mxGeometry relative="1" as="geometry" />
        </mxCell>
        <mxCell id="SeWUwIzPq12EOQfwaxu5-6" style="edgeStyle=orthogonalEdgeStyle;rounded=0;orthogonalLoop=1;jettySize=auto;html=1;entryX=0.717;entryY=1.013;entryDx=0;entryDy=0;entryPerimeter=0;" edge="1" parent="1" source="SeWUwIzPq12EOQfwaxu5-2" target="SeWUwIzPq12EOQfwaxu5-3">
          <mxGeometry relative="1" as="geometry" />
        </mxCell>
        <mxCell id="SeWUwIzPq12EOQfwaxu5-7" value="&lt;font color=&quot;#ff6666&quot;&gt;Install AD&lt;/font&gt;" style="edgeLabel;html=1;align=center;verticalAlign=middle;resizable=0;points=[];" vertex="1" connectable="0" parent="SeWUwIzPq12EOQfwaxu5-6">
          <mxGeometry x="-0.2209" y="1" relative="1" as="geometry">
            <mxPoint as="offset" />
          </mxGeometry>
        </mxCell>
        <mxCell id="SeWUwIzPq12EOQfwaxu5-8" value="Cannot add due to OS Issue" style="text;html=1;align=center;verticalAlign=middle;resizable=0;points=[];autosize=1;strokeColor=none;fillColor=none;" vertex="1" parent="1">
          <mxGeometry x="360" y="320" width="170" height="30" as="geometry" />
        </mxCell>
      </root>
    </mxGraphModel>
  </diagram>
  <diagram name="AD" id="Wk6_FdnwSJrq-4q-smJq">
    <mxGraphModel dx="1067" dy="1088" grid="1" gridSize="10" guides="0" tooltips="1" connect="1" arrows="1" fold="1" page="1" pageScale="1" pageWidth="827" pageHeight="1169" math="0" shadow="0">
      <root>
        <mxCell id="4K2bdWz4evBdR05bAMJh-0" />
        <mxCell id="4K2bdWz4evBdR05bAMJh-1" parent="4K2bdWz4evBdR05bAMJh-0" />
        <mxCell id="4K2bdWz4evBdR05bAMJh-2" value="UAT&lt;br&gt;&lt;br&gt;AD (2012)" style="whiteSpace=wrap;html=1;" vertex="1" parent="4K2bdWz4evBdR05bAMJh-1">
          <mxGeometry x="160" y="210" width="120" height="60" as="geometry" />
        </mxCell>
        <mxCell id="4K2bdWz4evBdR05bAMJh-4" value="UAT &lt;br&gt;AD" style="shape=hexagon;perimeter=hexagonPerimeter2;whiteSpace=wrap;html=1;fixedSize=1;" vertex="1" parent="4K2bdWz4evBdR05bAMJh-1">
          <mxGeometry x="360" y="120" width="120" height="80" as="geometry" />
        </mxCell>
        <mxCell id="4K2bdWz4evBdR05bAMJh-5" style="edgeStyle=orthogonalEdgeStyle;rounded=0;orthogonalLoop=1;jettySize=auto;html=1;entryX=0.575;entryY=1.038;entryDx=0;entryDy=0;entryPerimeter=0;" edge="1" parent="4K2bdWz4evBdR05bAMJh-1" source="4K2bdWz4evBdR05bAMJh-2" target="4K2bdWz4evBdR05bAMJh-4">
          <mxGeometry relative="1" as="geometry" />
        </mxCell>
        <mxCell id="4K2bdWz4evBdR05bAMJh-6" style="edgeStyle=orthogonalEdgeStyle;rounded=0;orthogonalLoop=1;jettySize=auto;html=1;entryX=0.717;entryY=1.013;entryDx=0;entryDy=0;entryPerimeter=0;exitX=1;exitY=0.5;exitDx=0;exitDy=0;" edge="1" parent="4K2bdWz4evBdR05bAMJh-1" source="7iuuNs9EtIdvos8ng46K-0" target="4K2bdWz4evBdR05bAMJh-4">
          <mxGeometry relative="1" as="geometry">
            <mxPoint x="310" y="310" as="sourcePoint" />
          </mxGeometry>
        </mxCell>
        <mxCell id="4K2bdWz4evBdR05bAMJh-7" value="&lt;font color=&quot;#ff6666&quot;&gt;Install AD&lt;/font&gt;" style="edgeLabel;html=1;align=center;verticalAlign=middle;resizable=0;points=[];" vertex="1" connectable="0" parent="4K2bdWz4evBdR05bAMJh-6">
          <mxGeometry x="-0.2209" y="1" relative="1" as="geometry">
            <mxPoint as="offset" />
          </mxGeometry>
        </mxCell>
        <mxCell id="4K2bdWz4evBdR05bAMJh-8" value="Cannot add due to OS Issue" style="text;html=1;align=center;verticalAlign=middle;resizable=0;points=[];autosize=1;strokeColor=none;fillColor=none;" vertex="1" parent="4K2bdWz4evBdR05bAMJh-1">
          <mxGeometry x="360" y="320" width="170" height="30" as="geometry" />
        </mxCell>
        <mxCell id="7iuuNs9EtIdvos8ng46K-0" value="UAT&lt;br&gt;&lt;br&gt;AD (2016)" style="whiteSpace=wrap;html=1;" vertex="1" parent="4K2bdWz4evBdR05bAMJh-1">
          <mxGeometry x="160" y="290" width="120" height="60" as="geometry" />
        </mxCell>
        <mxCell id="7iuuNs9EtIdvos8ng46K-2" value="UAT &lt;br&gt;AD" style="shape=hexagon;perimeter=hexagonPerimeter2;whiteSpace=wrap;html=1;fixedSize=1;" vertex="1" parent="4K2bdWz4evBdR05bAMJh-1">
          <mxGeometry x="360" y="440" width="120" height="80" as="geometry" />
        </mxCell>
        <mxCell id="7iuuNs9EtIdvos8ng46K-4" style="edgeStyle=orthogonalEdgeStyle;rounded=0;orthogonalLoop=1;jettySize=auto;html=1;entryX=0.717;entryY=1.013;entryDx=0;entryDy=0;entryPerimeter=0;exitX=1;exitY=0.5;exitDx=0;exitDy=0;" edge="1" parent="4K2bdWz4evBdR05bAMJh-1" target="7iuuNs9EtIdvos8ng46K-2" source="7iuuNs9EtIdvos8ng46K-7">
          <mxGeometry relative="1" as="geometry">
            <mxPoint x="300" y="580" as="sourcePoint" />
          </mxGeometry>
        </mxCell>
        <mxCell id="7iuuNs9EtIdvos8ng46K-5" value="&lt;font color=&quot;#ff6666&quot;&gt;Install AD&lt;/font&gt;" style="edgeLabel;html=1;align=center;verticalAlign=middle;resizable=0;points=[];" vertex="1" connectable="0" parent="7iuuNs9EtIdvos8ng46K-4">
          <mxGeometry x="-0.2209" y="1" relative="1" as="geometry">
            <mxPoint as="offset" />
          </mxGeometry>
        </mxCell>
        <mxCell id="7iuuNs9EtIdvos8ng46K-6" value="Cannot add due to OS Issue" style="text;html=1;align=center;verticalAlign=middle;resizable=0;points=[];autosize=1;strokeColor=none;fillColor=none;" vertex="1" parent="4K2bdWz4evBdR05bAMJh-1">
          <mxGeometry x="350" y="590" width="170" height="30" as="geometry" />
        </mxCell>
        <mxCell id="7iuuNs9EtIdvos8ng46K-7" value="UAT&lt;br&gt;AD&lt;br&gt;OS (2016)" style="whiteSpace=wrap;html=1;" vertex="1" parent="4K2bdWz4evBdR05bAMJh-1">
          <mxGeometry x="160" y="560" width="120" height="60" as="geometry" />
        </mxCell>
        <mxCell id="7iuuNs9EtIdvos8ng46K-8" value="UAT &lt;br&gt;AD" style="shape=hexagon;perimeter=hexagonPerimeter2;whiteSpace=wrap;html=1;fixedSize=1;" vertex="1" parent="4K2bdWz4evBdR05bAMJh-1">
          <mxGeometry x="360" y="720" width="120" height="80" as="geometry" />
        </mxCell>
        <mxCell id="7iuuNs9EtIdvos8ng46K-14" style="edgeStyle=orthogonalEdgeStyle;rounded=0;orthogonalLoop=1;jettySize=auto;html=1;entryX=0.375;entryY=1;entryDx=0;entryDy=0;" edge="1" parent="4K2bdWz4evBdR05bAMJh-1" source="7iuuNs9EtIdvos8ng46K-13" target="7iuuNs9EtIdvos8ng46K-8">
          <mxGeometry relative="1" as="geometry" />
        </mxCell>
        <mxCell id="7iuuNs9EtIdvos8ng46K-13" value="UAT&lt;br&gt;&lt;br&gt;AD (2016)" style="whiteSpace=wrap;html=1;" vertex="1" parent="4K2bdWz4evBdR05bAMJh-1">
          <mxGeometry x="160" y="830" width="120" height="60" as="geometry" />
        </mxCell>
        <mxCell id="7iuuNs9EtIdvos8ng46K-15" value="Intrim&amp;nbsp;" style="text;html=1;align=center;verticalAlign=middle;resizable=0;points=[];autosize=1;strokeColor=#d6b656;fillColor=#fff2cc;" vertex="1" parent="4K2bdWz4evBdR05bAMJh-1">
          <mxGeometry x="160" y="440" width="60" height="30" as="geometry" />
        </mxCell>
        <mxCell id="7iuuNs9EtIdvos8ng46K-17" value="Final" style="text;html=1;align=center;verticalAlign=middle;resizable=0;points=[];autosize=1;strokeColor=#d6b656;fillColor=#fff2cc;" vertex="1" parent="4K2bdWz4evBdR05bAMJh-1">
          <mxGeometry x="160" y="720" width="50" height="30" as="geometry" />
        </mxCell>
        <mxCell id="7iuuNs9EtIdvos8ng46K-18" value="Current" style="text;html=1;align=center;verticalAlign=middle;resizable=0;points=[];autosize=1;strokeColor=#d6b656;fillColor=#fff2cc;" vertex="1" parent="4K2bdWz4evBdR05bAMJh-1">
          <mxGeometry x="160" y="120" width="60" height="30" as="geometry" />
        </mxCell>
      </root>
    </mxGraphModel>
  </diagram>
</mxfile>
